<svg width="37.29mm" height="25.93mm" viewBox="0 0 37.29 25.93" version="1.1" xmlns="http://www.w3.org/2000/svg"> 
 <rect x="0.0" y="0" width="0.33" height="22.85" style="stroke-width:0;fill:white"/> 
 <rect x="0.33" y="0" width="0.33" height="22.85" style="stroke-width:0;fill:white"/> 
 <rect x="0.66" y="0" width="0.33" height="22.85" style="stroke-width:0;fill:white"/> 
 <rect x="0.99" y="0" width="0.33" height="22.85" style="stroke-width:0;fill:white"/> 
 <rect x="1.32" y="0" width="0.33" height="22.85" style="stroke-width:0;fill:white"/> 
 <rect x="1.6500001" y="0" width="0.33" height="22.85" style="stroke-width:0;fill:white"/> 
 <rect x="1.98" y="0" width="0.33" height="22.85" style="stroke-width:0;fill:white"/> 
 <rect x="2.3100002" y="0" width="0.33" height="22.85" style="stroke-width:0;fill:white"/> 
 <rect x="2.64" y="0" width="0.33" height="22.85" style="stroke-width:0;fill:white"/> 
 <rect x="2.97" y="0" width="0.33" height="22.85" style="stroke-width:0;fill:white"/> 
 <rect x="3.3000002" y="0" width="0.33" height="22.85" style="stroke-width:0;fill:white"/> 
 <rect x="3.63" y="0" width="0.33" height="25.4" style="stroke-width:0;fill:black"/> 
 <rect x="3.96" y="0" width="0.33" height="25.4" style="stroke-width:0;fill:white"/> 
 <rect x="4.29" y="0" width="0.33" height="25.4" style="stroke-width:0;fill:black"/> 
 <rect x="4.6200004" y="0" width="0.33" height="22.85" style="stroke-width:0;fill:white"/> 
 <rect x="4.9500003" y="0" width="0.33" height="22.85" style="stroke-width:0;fill:black"/> 
 <rect x="5.28" y="0" width="0.33" height="22.85" style="stroke-width:0;fill:black"/> 
 <rect x="5.61" y="0" width="0.33" height="22.85" style="stroke-width:0;fill:black"/> 
 <rect x="5.94" y="0" width="0.33" height="22.85" style="stroke-width:0;fill:white"/> 
 <rect x="6.2700005" y="0" width="0.33" height="22.85" style="stroke-width:0;fill:black"/> 
 <rect x="6.6000004" y="0" width="0.33" height="22.85" style="stroke-width:0;fill:black"/> 
 <rect x="6.9300003" y="0" width="0.33" height="22.85" style="stroke-width:0;fill:white"/> 
 <rect x="7.26" y="0" width="0.33" height="22.85" style="stroke-width:0;fill:white"/> 
 <rect x="7.59" y="0" width="0.33" height="22.85" style="stroke-width:0;fill:white"/> 
 <rect x="7.92" y="0" width="0.33" height="22.85" style="stroke-width:0;fill:black"/> 
 <rect x="8.25" y="0" width="0.33" height="22.85" style="stroke-width:0;fill:white"/> 
 <rect x="8.58" y="0" width="0.33" height="22.85" style="stroke-width:0;fill:white"/> 
 <rect x="8.910001" y="0" width="0.33" height="22.85" style="stroke-width:0;fill:black"/> 
 <rect x="9.240001" y="0" width="0.33" height="22.85" style="stroke-width:0;fill:white"/> 
 <rect x="9.570001" y="0" width="0.33" height="22.85" style="stroke-width:0;fill:white"/> 
 <rect x="9.900001" y="0" width="0.33" height="22.85" style="stroke-width:0;fill:white"/> 
 <rect x="10.2300005" y="0" width="0.33" height="22.85" style="stroke-width:0;fill:black"/> 
 <rect x="10.56" y="0" width="0.33" height="22.85" style="stroke-width:0;fill:white"/> 
 <rect x="10.89" y="0" width="0.33" height="22.85" style="stroke-width:0;fill:white"/> 
 <rect x="11.22" y="0" width="0.33" height="22.85" style="stroke-width:0;fill:black"/> 
 <rect x="11.55" y="0" width="0.33" height="22.85" style="stroke-width:0;fill:white"/> 
 <rect x="11.88" y="0" width="0.33" height="22.85" style="stroke-width:0;fill:black"/> 
 <rect x="12.21" y="0" width="0.33" height="22.85" style="stroke-width:0;fill:black"/> 
 <rect x="12.540001" y="0" width="0.33" height="22.85" style="stroke-width:0;fill:white"/> 
 <rect x="12.870001" y="0" width="0.33" height="22.85" style="stroke-width:0;fill:white"/> 
 <rect x="13.200001" y="0" width="0.33" height="22.85" style="stroke-width:0;fill:white"/> 
 <rect x="13.530001" y="0" width="0.33" height="22.85" style="stroke-width:0;fill:black"/> 
 <rect x="13.860001" y="0" width="0.33" height="22.85" style="stroke-width:0;fill:white"/> 
 <rect x="14.190001" y="0" width="0.33" height="22.85" style="stroke-width:0;fill:white"/> 
 <rect x="14.52" y="0" width="0.33" height="22.85" style="stroke-width:0;fill:black"/> 
 <rect x="14.85" y="0" width="0.33" height="22.85" style="stroke-width:0;fill:white"/> 
 <rect x="15.18" y="0" width="0.33" height="22.85" style="stroke-width:0;fill:white"/> 
 <rect x="15.51" y="0" width="0.33" height="22.85" style="stroke-width:0;fill:white"/> 
 <rect x="15.84" y="0" width="0.33" height="22.85" style="stroke-width:0;fill:black"/> 
 <rect x="16.17" y="0" width="0.33" height="22.85" style="stroke-width:0;fill:white"/> 
 <rect x="16.5" y="0" width="0.33" height="22.85" style="stroke-width:0;fill:black"/> 
 <rect x="16.83" y="0" width="0.33" height="22.85" style="stroke-width:0;fill:black"/> 
 <rect x="17.16" y="0" width="0.33" height="22.85" style="stroke-width:0;fill:black"/> 
 <rect x="17.49" y="0" width="0.33" height="22.85" style="stroke-width:0;fill:black"/> 
 <rect x="17.820002" y="0" width="0.33" height="22.85" style="stroke-width:0;fill:white"/> 
 <rect x="18.150002" y="0" width="0.33" height="22.85" style="stroke-width:0;fill:black"/> 
 <rect x="18.480001" y="0" width="0.33" height="25.4" style="stroke-width:0;fill:white"/> 
 <rect x="18.810001" y="0" width="0.33" height="25.4" style="stroke-width:0;fill:black"/> 
 <rect x="19.140001" y="0" width="0.33" height="25.4" style="stroke-width:0;fill:white"/> 
 <rect x="19.470001" y="0" width="0.33" height="25.4" style="stroke-width:0;fill:black"/> 
 <rect x="19.800001" y="0" width="0.33" height="25.4" style="stroke-width:0;fill:white"/> 
 <rect x="20.130001" y="0" width="0.33" height="22.85" style="stroke-width:0;fill:black"/> 
 <rect x="20.460001" y="0" width="0.33" height="22.85" style="stroke-width:0;fill:black"/> 
 <rect x="20.79" y="0" width="0.33" height="22.85" style="stroke-width:0;fill:black"/> 
 <rect x="21.12" y="0" width="0.33" height="22.85" style="stroke-width:0;fill:white"/> 
 <rect x="21.45" y="0" width="0.33" height="22.85" style="stroke-width:0;fill:white"/> 
 <rect x="21.78" y="0" width="0.33" height="22.85" style="stroke-width:0;fill:black"/> 
 <rect x="22.11" y="0" width="0.33" height="22.85" style="stroke-width:0;fill:white"/> 
 <rect x="22.44" y="0" width="0.33" height="22.85" style="stroke-width:0;fill:black"/> 
 <rect x="22.77" y="0" width="0.33" height="22.85" style="stroke-width:0;fill:white"/> 
 <rect x="23.1" y="0" width="0.33" height="22.85" style="stroke-width:0;fill:white"/> 
 <rect x="23.43" y="0" width="0.33" height="22.85" style="stroke-width:0;fill:white"/> 
 <rect x="23.76" y="0" width="0.33" height="22.85" style="stroke-width:0;fill:black"/> 
 <rect x="24.09" y="0" width="0.33" height="22.85" style="stroke-width:0;fill:white"/> 
 <rect x="24.42" y="0" width="0.33" height="22.85" style="stroke-width:0;fill:white"/> 
 <rect x="24.750002" y="0" width="0.33" height="22.85" style="stroke-width:0;fill:black"/> 
 <rect x="25.080002" y="0" width="0.33" height="22.85" style="stroke-width:0;fill:white"/> 
 <rect x="25.410002" y="0" width="0.33" height="22.85" style="stroke-width:0;fill:black"/> 
 <rect x="25.740002" y="0" width="0.33" height="22.85" style="stroke-width:0;fill:white"/> 
 <rect x="26.070002" y="0" width="0.33" height="22.85" style="stroke-width:0;fill:white"/> 
 <rect x="26.400002" y="0" width="0.33" height="22.85" style="stroke-width:0;fill:white"/> 
 <rect x="26.730001" y="0" width="0.33" height="22.85" style="stroke-width:0;fill:white"/> 
 <rect x="27.060001" y="0" width="0.33" height="22.85" style="stroke-width:0;fill:black"/> 
 <rect x="27.390001" y="0" width="0.33" height="22.85" style="stroke-width:0;fill:black"/> 
 <rect x="27.720001" y="0" width="0.33" height="22.85" style="stroke-width:0;fill:black"/> 
 <rect x="28.050001" y="0" width="0.33" height="22.85" style="stroke-width:0;fill:white"/> 
 <rect x="28.380001" y="0" width="0.33" height="22.85" style="stroke-width:0;fill:white"/> 
 <rect x="28.710001" y="0" width="0.33" height="22.85" style="stroke-width:0;fill:black"/> 
 <rect x="29.04" y="0" width="0.33" height="22.85" style="stroke-width:0;fill:white"/> 
 <rect x="29.37" y="0" width="0.33" height="22.85" style="stroke-width:0;fill:black"/> 
 <rect x="29.7" y="0" width="0.33" height="22.85" style="stroke-width:0;fill:white"/> 
 <rect x="30.03" y="0" width="0.33" height="22.85" style="stroke-width:0;fill:white"/> 
 <rect x="30.36" y="0" width="0.33" height="22.85" style="stroke-width:0;fill:black"/> 
 <rect x="30.69" y="0" width="0.33" height="22.85" style="stroke-width:0;fill:white"/> 
 <rect x="31.02" y="0" width="0.33" height="22.85" style="stroke-width:0;fill:white"/> 
 <rect x="31.35" y="0" width="0.33" height="22.85" style="stroke-width:0;fill:white"/> 
 <rect x="31.68" y="0" width="0.33" height="22.85" style="stroke-width:0;fill:black"/> 
 <rect x="32.010002" y="0" width="0.33" height="22.85" style="stroke-width:0;fill:black"/> 
 <rect x="32.34" y="0" width="0.33" height="22.85" style="stroke-width:0;fill:black"/> 
 <rect x="32.670002" y="0" width="0.33" height="22.85" style="stroke-width:0;fill:white"/> 
 <rect x="33.0" y="0" width="0.33" height="22.85" style="stroke-width:0;fill:white"/> 
 <rect x="33.33" y="0" width="0.33" height="22.85" style="stroke-width:0;fill:black"/> 
 <rect x="33.66" y="0" width="0.33" height="22.85" style="stroke-width:0;fill:white"/> 
 <rect x="33.99" y="0" width="0.33" height="25.4" style="stroke-width:0;fill:black"/> 
 <rect x="34.32" y="0" width="0.33" height="25.4" style="stroke-width:0;fill:white"/> 
 <rect x="34.65" y="0" width="0.33" height="25.4" style="stroke-width:0;fill:black"/> 
 <rect x="34.98" y="0" width="0.33" height="22.85" style="stroke-width:0;fill:white"/> 
 <rect x="35.31" y="0" width="0.33" height="22.85" style="stroke-width:0;fill:white"/> 
 <rect x="35.640003" y="0" width="0.33" height="22.85" style="stroke-width:0;fill:white"/> 
 <rect x="35.97" y="0" width="0.33" height="22.85" style="stroke-width:0;fill:white"/> 
 <rect x="36.300003" y="0" width="0.33" height="22.85" style="stroke-width:0;fill:white"/> 
 <rect x="36.63" y="0" width="0.33" height="22.85" style="stroke-width:0;fill:white"/> 
 <rect x="36.960003" y="0" width="0.33" height="22.85" style="stroke-width:0;fill:white"/> 
 <text x="1,6,8,10,12,14,16,21,23,25,27,29,31" y="26" font-size="4" >9788573076080</text></svg>